<svg xmlns="http://www.w3.org/2000/svg" xmlns:xlink="http://www.w3.org/1999/xlink" viewBox="0,0,256,256" width="96px" height="96px"><g fill="none" fill-rule="nonzero" stroke="none" stroke-width="1" stroke-linecap="butt" stroke-linejoin="miter" stroke-miterlimit="10" stroke-dasharray="" stroke-dashoffset="0" font-family="none" font-weight="none" font-size="none" text-anchor="none" style="mix-blend-mode: normal"><g transform="scale(5.33333,5.33333)"><rect x="19" y="32" width="10" height="10" fill="#e4dc41"></rect><rect x="12" y="38" width="24" height="4" fill="#e4dc41"></rect><rect x="5" y="7" width="38" height="23" fill="#4d6f8c"></rect><rect x="5" y="30" width="38" height="5" fill="#e4dc41"></rect><rect x="19" y="32" width="10" height="3" fill="#e4dc41"></rect><rect x="-4.91462" y="21.8345" transform="rotate(-45.001)" width="7" height="3" fill="#e4dc41"></rect><rect x="-4.91889" y="21.83246" transform="rotate(-45.001)" width="3" height="7" fill="#e4dc41"></rect><rect x="-4.91544" y="21.83417" transform="rotate(-45.001)" width="2.998" height="3" fill="#e4dc41"></rect><rect x="9.10357" y="31.85411" transform="rotate(-45.001)" width="3" height="7" fill="#e4dc41"></rect><rect x="5.10384" y="35.8556" transform="rotate(-45.001)" width="7" height="3" fill="#e4dc41"></rect><rect x="9.10212" y="35.85522" transform="rotate(-45.001)" width="3" height="2.998" fill="#e4dc41"></rect><path d="M24.233,10l-3.523,18h3.057l3.523,-18z" fill="#e4dc41"></path></g></g></svg>